<svg xmlns="http://www.w3.org/2000/svg" viewBox="0 0 800 400" fill="none">
  <rect width="800" height="400" fill="#0f172a"/>
  <!-- Browser chrome -->
  <rect x="80" y="40" width="640" height="320" rx="12" fill="#1e293b" stroke="#334155" stroke-width="1.5"/>
  <rect x="80" y="40" width="640" height="36" rx="12" fill="#1e293b"/>
  <rect x="80" y="64" width="640" height="12" fill="#1e293b"/>
  <circle cx="108" cy="58" r="6" fill="#ef4444"/>
  <circle cx="128" cy="58" r="6" fill="#f59e0b"/>
  <circle cx="148" cy="58" r="6" fill="#22c55e"/>
  <!-- Device cards -->
  <rect x="104" y="96" width="180" height="120" rx="8" fill="#0f172a" stroke="#0ea5e9" stroke-width="1"/>
  <circle cx="124" cy="116" r="10" fill="#22c55e"/>
  <rect x="144" y="110" width="80" height="8" rx="4" fill="#e2e8f0" opacity="0.9"/>
  <rect x="144" y="122" width="55" height="6" rx="3" fill="#94a3b8" opacity="0.7"/>
  <rect x="112" y="144" width="144" height="6" rx="3" fill="#334155"/>
  <rect x="112" y="144" width="96" height="6" rx="3" fill="#0ea5e9"/>
  <rect x="112" y="158" width="144" height="6" rx="3" fill="#334155"/>
  <rect x="112" y="158" width="60" height="6" rx="3" fill="#22c55e"/>
  <rect x="112" y="176" width="80" height="22" rx="6" fill="#0ea5e9" opacity="0.15"/>
  <rect x="200" y="176" width="56" height="22" rx="6" fill="#334155"/>
  <!-- Card 2 -->
  <rect x="304" y="96" width="180" height="120" rx="8" fill="#0f172a" stroke="#334155" stroke-width="1"/>
  <circle cx="324" cy="116" r="10" fill="#f59e0b"/>
  <rect x="344" y="110" width="80" height="8" rx="4" fill="#e2e8f0" opacity="0.9"/>
  <rect x="344" y="122" width="55" height="6" rx="3" fill="#94a3b8" opacity="0.7"/>
  <rect x="312" y="144" width="144" height="6" rx="3" fill="#334155"/>
  <rect x="312" y="144" width="50" height="6" rx="3" fill="#f59e0b"/>
  <rect x="312" y="158" width="144" height="6" rx="3" fill="#334155"/>
  <rect x="312" y="158" width="110" height="6" rx="3" fill="#22c55e"/>
  <!-- Card 3 -->
  <rect x="504" y="96" width="180" height="120" rx="8" fill="#0f172a" stroke="#334155" stroke-width="1"/>
  <circle cx="524" cy="116" r="10" fill="#22c55e"/>
  <rect x="544" y="110" width="80" height="8" rx="4" fill="#e2e8f0" opacity="0.9"/>
  <rect x="544" y="122" width="55" height="6" rx="3" fill="#94a3b8" opacity="0.7"/>
  <rect x="512" y="144" width="144" height="6" rx="3" fill="#334155"/>
  <rect x="512" y="144" width="120" height="6" rx="3" fill="#0ea5e9"/>
  <!-- Bottom panel -->
  <rect x="104" y="236" width="580" height="100" rx="8" fill="#0f172a" stroke="#334155" stroke-width="1"/>
  <rect x="120" y="252" width="100" height="8" rx="4" fill="#0ea5e9" opacity="0.8"/>
  <rect x="120" y="268" width="548" height="6" rx="3" fill="#1e293b"/>
  <rect x="120" y="282" width="548" height="6" rx="3" fill="#1e293b"/>
  <rect x="120" y="296" width="400" height="6" rx="3" fill="#1e293b"/>
  <rect x="120" y="268" width="200" height="6" rx="3" fill="#334155"/>
  <rect x="120" y="282" width="340" height="6" rx="3" fill="#334155"/>
  <rect x="120" y="296" width="150" height="6" rx="3" fill="#334155"/>
</svg>
